<svg width="32" height="32" viewBox="0 0 37 35" fill="none" xmlns="http://www.w3.org/2000/svg">
<path d="M33.1773 7.4419H29.1773C29.4795 6.616 29.5763 5.72901 29.4594 4.85739C29.3425 3.98577 29.0154 3.15564 28.5063 2.43854C27.9973 1.72143 27.3215 1.13886 26.5372 0.741026C25.7529 0.343196 24.8836 0.142026 24.0043 0.154876C23.0964 0.154876 22.2026 0.379396 21.4025 0.808416C20.6023 1.23745 19.9207 1.85767 19.4183 2.61388L18.5003 3.83488L17.5833 2.59588C17.0769 1.84467 16.3938 1.22927 15.594 0.803656C14.7943 0.378056 13.9023 0.155276 12.9963 0.154876C12.117 0.142026 11.2477 0.343196 10.4634 0.741026C9.6791 1.13886 9.0033 1.72143 8.4942 2.43854C7.9852 3.15564 7.6581 3.98577 7.5412 4.85739C7.4243 5.72901 7.5211 6.616 7.8233 7.4419H3.8233C3.34358 7.4388 2.86802 7.531 2.42414 7.7129C1.98027 7.8949 1.57688 8.1631 1.23734 8.502C0.897797 8.8408 0.628837 9.2437 0.446017 9.6872C0.263207 10.1308 0.170167 10.6062 0.172297 11.0859L0.154297 31.1259C0.154287 31.6065 0.249357 32.0824 0.434047 32.5262C0.618737 32.9699 0.889387 33.3727 1.23042 33.7115C1.57145 34.0502 1.97612 34.3181 2.42112 34.4997C2.86612 34.6814 3.34266 34.7732 3.8233 34.7699H33.1773C33.6579 34.7732 34.1345 34.6814 34.5795 34.4997C35.0245 34.3181 35.4291 34.0502 35.7702 33.7115C36.1112 33.3727 36.3819 32.9699 36.5665 32.5262C36.7512 32.0824 36.8463 31.6065 36.8463 31.1259V11.0859C36.8463 10.6052 36.7512 10.1293 36.5665 9.6856C36.3819 9.2418 36.1112 8.839 35.7702 8.5003C35.4291 8.1616 35.0245 7.8937 34.5795 7.712C34.1345 7.5304 33.6579 7.4386 33.1773 7.4419ZM24.0043 3.79888C24.3641 3.80144 24.7151 3.91048 25.013 4.11224C25.3109 4.314 25.5424 4.59944 25.6783 4.93259C25.8142 5.26573 25.8485 5.63166 25.7767 5.98423C25.7049 6.3368 25.5304 6.6602 25.2751 6.9137C25.0197 7.1673 24.6951 7.3395 24.342 7.4088C23.9889 7.478 23.6232 7.4412 23.2911 7.3029C22.9589 7.1646 22.6751 6.9311 22.4755 6.6318C22.2758 6.3324 22.1693 5.98068 22.1693 5.62088C22.1725 5.13638 22.3672 4.67282 22.711 4.33144C23.0549 3.99006 23.5198 3.7986 24.0043 3.79888ZM12.9963 3.79888C13.3561 3.80144 13.7071 3.91048 14.005 4.11224C14.3029 4.314 14.5344 4.59944 14.6703 4.93259C14.8062 5.26573 14.8405 5.63166 14.7687 5.98423C14.6969 6.3368 14.5224 6.6602 14.2671 6.9137C14.0117 7.1673 13.6871 7.3395 13.334 7.4088C12.9809 7.478 12.6152 7.4412 12.2831 7.3029C11.9509 7.1646 11.6671 6.9311 11.4675 6.6318C11.2678 6.3324 11.1613 5.98068 11.1613 5.62088C11.1645 5.13638 11.3592 4.67282 11.703 4.33144C12.0469 3.99006 12.5118 3.7986 12.9963 3.79888ZM33.1773 31.1259H3.8233V27.4829H33.1773V31.1259ZM33.1773 22.0169H3.8233V11.0859H13.1433L9.3273 16.2419L12.2993 18.3739L16.6653 12.4739L18.5003 9.9959L20.3353 12.4739L24.7013 18.3739L27.6733 16.2419L23.8543 11.0859H33.1743L33.1773 22.0169Z" fill="white"/>
</svg>
