<svg width="20" height="20" viewBox="0 0 20 20" fill="none" xmlns="http://www.w3.org/2000/svg">
<path d="M16.3895 10.8336C16.4262 10.5571 16.4442 10.2785 16.4435 9.99958C16.4455 9.72032 16.4244 9.44137 16.3805 9.16558L18.1975 7.76558C18.2755 7.70189 18.3288 7.61304 18.3483 7.51431C18.3678 7.41558 18.3523 7.31313 18.3045 7.22458L16.5825 4.27658C16.5321 4.18646 16.4515 4.11701 16.3549 4.08043C16.2584 4.04385 16.152 4.04249 16.0545 4.07658L13.9155 4.92858C13.4712 4.58771 12.9836 4.30726 12.4655 4.09458L12.1435 1.84058C12.1273 1.73849 12.0749 1.64563 11.996 1.57884C11.9171 1.51205 11.8169 1.47577 11.7135 1.47658H8.28253C8.18019 1.47606 8.08114 1.51266 8.00373 1.57959C7.92632 1.64652 7.8758 1.73924 7.86153 1.84058L7.53953 4.09858C7.02216 4.3127 6.53476 4.59304 6.08953 4.93258L3.95152 4.08158C3.85421 4.04538 3.74708 4.04569 3.64999 4.08247C3.55289 4.11925 3.47243 4.18999 3.42353 4.28158L1.71453 7.22258C1.65954 7.30926 1.63997 7.41376 1.65989 7.51446C1.67981 7.61516 1.73768 7.70435 1.82153 7.76358L3.63853 9.16358C3.53723 9.71446 3.53115 10.2786 3.62053 10.8316L1.80353 12.2316C1.7256 12.2953 1.67229 12.3841 1.65276 12.4828C1.63323 12.5816 1.64871 12.684 1.69653 12.7726L3.41453 15.7186C3.46496 15.8087 3.54554 15.8781 3.64211 15.9147C3.73868 15.9513 3.84505 15.9527 3.94253 15.9186L6.08253 15.0656C6.52687 15.4064 7.01445 15.6869 7.53253 15.8996L7.85453 18.1536C7.87212 18.2551 7.92483 18.3471 8.00343 18.4137C8.08204 18.4802 8.18154 18.517 8.28453 18.5176H11.7205C11.8233 18.5196 11.9231 18.4836 12.0009 18.4163C12.0786 18.3491 12.1287 18.2555 12.1415 18.1536L12.4635 15.8996C12.9826 15.6889 13.4704 15.4083 13.9135 15.0656L16.0525 15.9176C16.1498 15.9538 16.257 15.9535 16.3541 15.9167C16.4512 15.8799 16.5316 15.8092 16.5805 15.7176L18.2955 12.7816C18.3486 12.6944 18.3671 12.5904 18.3473 12.4903C18.3275 12.3901 18.2708 12.301 18.1885 12.2406L16.3895 10.8336ZM10.0005 13.1936C9.36999 13.1882 8.75514 12.9964 8.23345 12.6422C7.71176 12.288 7.30659 11.7874 7.06897 11.2033C6.83136 10.6192 6.77195 9.97786 6.89822 9.36007C7.0245 8.74229 7.33081 8.1757 7.77855 7.73171C8.2263 7.28771 8.79544 6.98618 9.41427 6.86512C10.0331 6.74405 10.6739 6.80886 11.256 7.05138C11.838 7.29389 12.3353 7.70327 12.6851 8.22792C13.0348 8.75257 13.2215 9.36902 13.2215 9.99958C13.2154 10.8495 12.8733 11.6624 12.2698 12.2609C11.6663 12.8593 10.8504 13.1947 10.0005 13.1936Z" fill="white"/>
</svg>
