<svg width="32" height="32" viewBox="0 0 32 32" fill="none" xmlns="http://www.w3.org/2000/svg">
<g clip-path="url(#clip0_173_52)">
<path d="M26.5051 2.95432H2.65051C1.94968 2.95063 1.27545 3.21901 0.773248 3.70157C0.528005 3.93723 0.333198 4.2191 0.200374 4.53047C0.0675493 4.84184 -0.000587075 5.17638 3.81045e-06 5.51423V20.8744C0.00764787 21.5608 0.291178 22.2161 0.788232 22.6962C1.28529 23.1763 1.95516 23.4418 2.65051 23.4343H11.9273V25.9942H9.27677V28.5542H19.8788V25.9949H17.2283V23.435H19.8788V20.8744H2.65051V5.51423H26.5051V11.9144H29.1556V5.51423C29.1479 4.82782 28.8644 4.17251 28.3673 3.69245C27.8703 3.21239 27.2004 2.94687 26.5051 2.95432V2.95432Z" fill="#0DB551"/>
<path d="M24.4052 16.6241C24.4544 16.539 24.4814 16.4431 24.4837 16.3451C24.486 16.2472 24.4636 16.1502 24.4185 16.0629V16.0629L22.5317 12.8L19.6342 17.802C19.5827 17.8911 19.5555 17.992 19.5555 18.0947C19.5555 18.1975 19.5827 18.2984 19.6342 18.3875V18.3875L22.3549 23.0805C22.4053 23.1724 22.4798 23.2492 22.5705 23.3028C22.6612 23.3565 22.7647 23.3849 22.8703 23.3853H26.6194L23.5538 18.0968L24.4052 16.6241ZM31.5524 17.7905L28.8361 13.0983C28.7848 13.008 28.7102 12.9328 28.62 12.8804C28.5298 12.828 28.4271 12.8003 28.3226 12.8H24.5752L27.6408 18.0968L26.7998 19.554L26.7796 19.5898C26.7356 19.6737 26.7126 19.7669 26.7126 19.8614C26.7126 19.956 26.7356 20.0492 26.7796 20.1331L26.7998 20.1689L28.6653 23.3937C28.6653 23.3937 31.5579 18.3875 31.5625 18.3875C31.6162 18.2967 31.6444 18.1933 31.6444 18.0881C31.6444 17.9828 31.6162 17.8795 31.5625 17.7886L31.5524 17.7905Z" fill="#0DB551"/>
<path opacity="0.501" d="M22.5315 12.8L21.5186 14.5734L23.5533 18.1734L24.407 16.6791C24.4562 16.5926 24.4831 16.4954 24.4855 16.3961C24.4878 16.2968 24.4654 16.1985 24.4203 16.1098V16.1098L22.5315 12.8Z" fill="url(#paint0_linear_173_52)"/>
<path d="M28.5823 23.4667L29.5953 21.6933L27.5615 18.0925L26.7097 19.5868C26.6605 19.6733 26.6336 19.7705 26.6313 19.8698C26.629 19.9691 26.6513 20.0675 26.6965 20.1561L28.5823 23.4667Z" fill="url(#paint1_linear_173_52)"/>
</g>
<defs>
<linearGradient id="paint0_linear_173_52" x1="23.3908" y1="14.6592" x2="21.8207" y2="15.7422" gradientUnits="userSpaceOnUse">
<stop stop-color="#043819" stop-opacity="0"/>
<stop offset="1" stop-color="#043819"/>
</linearGradient>
<linearGradient id="paint1_linear_173_52" x1="27.0846" y1="21.0537" x2="29.4851" y2="19.8376" gradientUnits="userSpaceOnUse">
<stop stop-color="#043819" stop-opacity="0"/>
<stop offset="1" stop-color="#043819"/>
</linearGradient>
<clipPath id="clip0_173_52">
<rect width="32" height="32" fill="white"/>
</clipPath>
</defs>
</svg>
