<svg width="172" height="48" viewBox="0 0 192 56" fill="none" xmlns="http://www.w3.org/2000/svg">
<path d="M94.7304 9.90763H85.3124C85.2909 9.90789 85.2696 9.91239 85.2498 9.92087C85.23 9.92936 85.2121 9.94166 85.197 9.95707C85.182 9.97249 85.1701 9.99071 85.1621 10.0107C85.1541 10.0307 85.1502 10.0521 85.1504 10.0736V43.5736C85.2088 44.1346 85.1543 44.7017 84.9901 45.2413C84.8259 45.7809 84.5554 46.2822 84.1944 46.7156C83.8599 47.0254 83.4674 47.2658 83.0395 47.423C82.6117 47.5802 82.1569 47.6511 81.7014 47.6316C81.0767 47.6251 80.4535 47.5696 79.8374 47.4656C79.815 47.4621 79.7921 47.4634 79.7702 47.4694C79.7483 47.4755 79.7279 47.4861 79.7104 47.5006C79.6927 47.5154 79.6782 47.5337 79.6678 47.5543C79.6575 47.575 79.6516 47.5976 79.6504 47.6206V55.1316C79.6497 55.1716 79.6635 55.2104 79.6893 55.2409C79.715 55.2714 79.7509 55.2916 79.7904 55.2976C80.4278 55.4156 81.0338 55.507 81.6084 55.5716C82.3831 55.6459 83.1612 55.6793 83.9394 55.6716C86.9331 55.8922 89.892 54.9157 92.1664 52.9566C94.0231 51.1466 94.9514 48.3016 94.9514 44.4216V10.0686C94.9534 10.0409 94.9484 10.0131 94.9368 9.98775C94.9253 9.96243 94.9076 9.94038 94.8854 9.92363C94.8635 9.90715 94.8378 9.89657 94.8107 9.89289C94.7835 9.88922 94.7559 9.89257 94.7304 9.90263V9.90763ZM129.549 15.0266C128.146 13.2537 126.365 11.8161 124.336 10.8186C122.017 9.7212 119.472 9.18313 116.906 9.24763C114.599 9.224 112.312 9.69517 110.202 10.6294C108.091 11.5637 106.206 12.9393 104.671 14.6636C103.146 16.3658 101.958 18.3426 101.171 20.4886C100.333 22.7478 99.9103 25.14 99.9234 27.5496V27.6836C99.8893 30.1997 100.345 32.6984 101.264 35.0406C102.119 37.1795 103.394 39.1257 105.012 40.7646C106.638 42.3686 108.579 43.617 110.712 44.4306C112.988 45.318 115.413 45.7627 117.855 45.7406C120.674 45.8099 123.468 45.2141 126.013 44.0016C128.273 42.8849 130.262 41.2884 131.84 39.3236C131.856 39.308 131.869 39.2895 131.877 39.269C131.885 39.2486 131.89 39.2267 131.89 39.2046C131.89 39.1825 131.885 39.1606 131.877 39.1402C131.869 39.1198 131.856 39.1012 131.84 39.0856L126.483 34.2526C126.454 34.2276 126.417 34.2138 126.379 34.2138C126.341 34.2138 126.303 34.2276 126.274 34.2526C125.127 35.3462 123.81 36.2459 122.374 36.9166C120.997 37.502 119.512 37.7903 118.016 37.7626C116.045 37.8292 114.111 37.2152 112.538 36.0236C110.951 34.7347 109.89 32.9092 109.556 30.8916H133.431C133.471 30.421 133.502 29.9643 133.524 29.5216C133.548 29.1253 133.548 28.7279 133.524 28.3316C133.532 25.9162 133.199 23.5119 132.534 21.1896C131.951 18.9613 130.938 16.8682 129.552 15.0276L129.549 15.0266ZM109.476 24.6746C109.725 22.6687 110.56 20.7807 111.876 19.2466C112.511 18.574 113.283 18.0454 114.139 17.6964C114.995 17.3474 115.916 17.1862 116.84 17.2236C117.763 17.1865 118.682 17.3517 119.534 17.7076C120.385 18.0635 121.149 18.6014 121.77 19.2836C123.081 20.8003 123.895 22.6827 124.101 24.6766L109.476 24.6746ZM159.042 9.20163C156.622 8.97578 154.206 9.6782 152.284 11.1666C150.492 12.7259 149.109 14.6995 148.253 16.9156V10.0686C148.254 10.0471 148.25 10.0257 148.242 10.0057C148.234 9.98571 148.222 9.96749 148.207 9.95207C148.192 9.93666 148.174 9.92436 148.154 9.91587C148.134 9.90739 148.113 9.90289 148.091 9.90263H138.679C138.658 9.90289 138.637 9.90739 138.617 9.91587C138.597 9.92436 138.579 9.93666 138.564 9.95207C138.549 9.96749 138.537 9.98571 138.529 10.0057C138.521 10.0257 138.517 10.0471 138.517 10.0686V44.7926C138.517 44.8142 138.521 44.8355 138.529 44.8555C138.537 44.8755 138.549 44.8938 138.564 44.9092C138.579 44.9246 138.597 44.9369 138.617 44.9454C138.637 44.9539 138.658 44.9584 138.679 44.9586H148.079C148.101 44.9584 148.122 44.9539 148.142 44.9454C148.162 44.9369 148.18 44.9246 148.195 44.9092C148.21 44.8938 148.222 44.8755 148.23 44.8555C148.238 44.8355 148.242 44.8142 148.241 44.7926V32.0066C148.241 27.7773 149.17 24.6586 151.026 22.6506C152.011 21.6312 153.203 20.8348 154.522 20.3154C155.84 19.796 157.255 19.5655 158.67 19.6396H159.188V9.41363C159.192 9.3696 159.177 9.32614 159.148 9.29263C159.134 9.27628 159.117 9.26291 159.098 9.25329C159.079 9.24367 159.058 9.23801 159.036 9.23663L159.042 9.20163ZM191.123 18.2376C190.574 16.4483 189.607 14.8149 188.303 13.4716C186.989 12.1627 185.394 11.1709 183.638 10.5716C181.416 9.84691 179.087 9.50505 176.75 9.56063C174.251 9.51602 171.755 9.78002 169.32 10.3466C167.333 10.8351 165.388 11.4846 163.506 12.2886C163.469 12.305 163.439 12.3343 163.422 12.3711C163.405 12.4079 163.402 12.4497 163.413 12.4886L165.744 19.7616C165.751 19.783 165.761 19.8028 165.775 19.82C165.789 19.8372 165.807 19.8513 165.826 19.8616C165.846 19.8716 165.867 19.8775 165.889 19.8789C165.911 19.8803 165.933 19.8771 165.953 19.8696C167.373 19.3196 168.83 18.8695 170.312 18.5226C171.944 18.176 173.609 18.0127 175.276 18.0356C177.247 17.8901 179.203 18.4702 180.776 19.6666C181.416 20.2764 181.913 21.0195 182.234 21.8432C182.554 22.6669 182.688 23.551 182.628 24.4326V25.0156C181.384 24.5782 180.111 24.2283 178.818 23.9686C177.309 23.6878 175.775 23.5559 174.239 23.5746C172.349 23.5555 170.464 23.7875 168.634 24.2646C167.077 24.6713 165.611 25.3704 164.314 26.3246C163.104 27.234 162.128 28.4201 161.469 29.7836C160.752 31.3381 160.402 33.0363 160.444 34.7476V34.9026C160.413 36.488 160.731 38.0608 161.375 39.5096C161.965 40.8016 162.827 41.9507 163.903 42.8776C164.999 43.8093 166.271 44.51 167.644 44.9376C169.126 45.4045 170.67 45.6373 172.223 45.6276C174.311 45.6904 176.386 45.2802 178.293 44.4276C179.925 43.646 181.383 42.5453 182.582 41.1906V44.7616C182.582 44.7832 182.586 44.8045 182.594 44.8245C182.602 44.8445 182.614 44.8628 182.629 44.8782C182.644 44.8936 182.662 44.9059 182.682 44.9144C182.702 44.9229 182.723 44.9274 182.744 44.9276H191.833C191.855 44.9274 191.876 44.9229 191.896 44.9144C191.916 44.9059 191.934 44.8936 191.949 44.8782C191.964 44.8628 191.976 44.8445 191.984 44.8245C191.992 44.8045 191.996 44.7832 191.995 44.7616V24.6156C192.027 22.4559 191.728 20.304 191.109 18.2346L191.123 18.2376ZM182.803 32.5946C182.827 33.448 182.651 34.295 182.288 35.068C181.926 35.8411 181.388 36.5186 180.717 37.0466C179.131 38.2443 177.174 38.8461 175.188 38.7466C173.82 38.8127 172.468 38.4234 171.343 37.6396C170.86 37.2758 170.474 36.7992 170.218 36.2514C169.962 35.7037 169.844 35.1015 169.874 34.4976V34.3666C169.846 33.6674 169.996 32.9724 170.311 32.3474C170.626 31.7225 171.095 31.1884 171.674 30.7956C173.159 29.9085 174.878 29.4935 176.604 29.6056C177.733 29.5972 178.858 29.7157 179.96 29.9586C180.938 30.178 181.89 30.4967 182.802 30.9096L182.803 32.5946Z" fill="#F5F5F5"/>
<path d="M25.217 20.076C25.4726 19.6294 25.6128 19.1262 25.6249 18.6117C25.6369 18.0973 25.5205 17.588 25.286 17.13V17.13L15.475 0L0.409001 26.26C0.141048 26.7279 8.01086e-05 27.2578 8.01086e-05 27.797C8.01086e-05 28.3362 0.141048 28.8661 0.409001 29.334V29.334L14.556 53.972C14.8182 54.4545 15.2053 54.8576 15.6768 55.1391C16.1483 55.4206 16.6869 55.5701 17.236 55.572H36.73L20.79 27.808L25.217 20.076ZM62.38 26.2L48.256 1.566C47.9894 1.092 47.6017 0.697274 47.1326 0.422141C46.6636 0.147008 46.1298 0.00133331 45.586 0L26.101 0L42.041 27.808L37.668 35.458L37.563 35.646C37.3341 36.0865 37.2147 36.5756 37.2147 37.072C37.2147 37.5684 37.3341 38.0575 37.563 38.498L37.668 38.686L47.368 55.616C47.368 55.616 62.409 29.334 62.433 29.334C62.7118 28.857 62.8588 28.3145 62.8588 27.762C62.8588 27.2095 62.7118 26.667 62.433 26.19L62.38 26.2Z" fill="#0DB551"/>
<path opacity="0.501" d="M15.474 0L10.207 9.31L20.787 28.21L25.226 20.365C25.4818 19.9107 25.6219 19.4004 25.634 18.8791C25.646 18.3579 25.5296 17.8416 25.295 17.376V17.376L15.474 0Z" fill="url(#paint0_linear_2_17703)"/>
<path d="M46.9368 56.0001L52.2038 46.6901L41.6288 27.7861L37.1998 35.6311C36.944 36.0855 36.8039 36.5958 36.7919 37.117C36.7798 37.6383 36.8962 38.1545 37.1308 38.6201L46.9368 56.0001Z" fill="url(#paint1_linear_2_17703)"/>
<defs>
<linearGradient id="paint0_linear_2_17703" x1="19.942" y1="9.76066" x2="11.7276" y2="15.3724" gradientUnits="userSpaceOnUse">
<stop stop-color="#043819" stop-opacity="0"/>
<stop offset="1" stop-color="#043819"/>
</linearGradient>
<linearGradient id="paint1_linear_2_17703" x1="39.1492" y1="43.332" x2="51.6797" y2="37.0449" gradientUnits="userSpaceOnUse">
<stop stop-color="#043819" stop-opacity="0"/>
<stop offset="1" stop-color="#043819"/>
</linearGradient>
</defs>
</svg>
