<svg width="61" height="62" viewBox="0 0 61 62" fill="none" xmlns="http://www.w3.org/2000/svg">
<path d="M30.4999 6.47024C23.9499 6.42792 17.6512 8.98793 12.9879 13.5876C8.32464 18.1873 5.67844 24.4504 5.63086 31.0002C5.67844 37.5501 8.32464 43.8132 12.9879 48.4129C17.6512 53.0126 23.9499 55.5726 30.4999 55.5302C37.0498 55.5726 43.3485 53.0126 48.0118 48.4129C52.6751 43.8132 55.3213 37.5501 55.3689 31.0002C55.3213 24.4504 52.6751 18.1873 48.0118 13.5876C43.3485 8.98793 37.0498 6.42792 30.4999 6.47024ZM30.4999 13.8292C31.9511 13.8492 33.3641 14.2977 34.5611 15.1185C35.7581 15.9393 36.6857 17.0957 37.2273 18.4422C37.7688 19.7888 37.9002 21.2654 37.6048 22.6864C37.3095 24.1074 36.6005 25.4094 35.5672 26.4286C34.5339 27.4477 33.2223 28.1387 31.7974 28.4145C30.3724 28.6902 28.8978 28.5386 27.5588 27.9785C26.2198 27.4185 25.0763 26.475 24.2721 25.2668C23.4679 24.0586 23.0388 22.6396 23.0389 21.1882C23.0442 20.2148 23.2416 19.2519 23.6197 18.3548C23.9978 17.4578 24.5492 16.6441 25.2423 15.9605C25.9354 15.2769 26.7565 14.7368 27.6587 14.371C28.5609 14.0053 29.5264 13.8212 30.4999 13.8292ZM30.4999 48.6622C27.556 48.6682 24.6557 47.9509 22.0539 46.5734C19.4522 45.1959 17.2287 43.2004 15.5789 40.7622C15.6539 35.8812 25.5269 33.2072 30.4999 33.2072C35.4489 33.2072 45.3469 35.8812 45.4209 40.7622C43.771 43.2004 41.5475 45.1959 38.9458 46.5734C36.344 47.9509 33.4438 48.6682 30.4999 48.6622Z" fill="white"/>
</svg>
