<svg width="29" height="29" viewBox="0 0 30 30" fill="none" xmlns="http://www.w3.org/2000/svg">
<path d="M15 3.75C15.7417 3.75 16.4667 3.96993 17.0834 4.38199C17.7001 4.79404 18.1807 5.37971 18.4645 6.06494C18.7484 6.75016 18.8226 7.50416 18.6779 8.23159C18.5332 8.95902 18.1761 9.6272 17.6517 10.1517C17.1272 10.6761 16.459 11.0333 15.7316 11.1779C15.0042 11.3226 14.2502 11.2484 13.5649 10.9645C12.8797 10.6807 12.294 10.2001 11.882 9.58339C11.4699 8.9667 11.25 8.24168 11.25 7.5C11.2529 6.50633 11.6489 5.55419 12.3516 4.85156C13.0542 4.14892 14.0063 3.7529 15 3.75ZM15 22.5C20.063 22.5 25.875 24.919 26.25 26.25H3.75C4.181 24.9 9.956 22.5 15 22.5ZM15 0C13.5166 0 12.0666 0.439867 10.8332 1.26398C9.59985 2.08809 8.63856 3.25943 8.0709 4.62987C7.50325 6.00032 7.35472 7.50832 7.64411 8.96318C7.9335 10.418 8.64781 11.7544 9.6967 12.8033C10.7456 13.8522 12.082 14.5665 13.5368 14.8559C14.9917 15.1453 16.4997 14.9968 17.8701 14.4291C19.2406 13.8614 20.4119 12.9001 21.236 11.6668C22.0601 10.4334 22.5 8.98336 22.5 7.5C22.5 5.51088 21.7098 3.60322 20.3033 2.1967C18.8968 0.790176 16.9891 0 15 0ZM15 18.75C9.994 18.75 0 21.263 0 26.25V30H30V26.25C30 21.263 20.006 18.75 15 18.75Z" fill="#FCFCFC"/>
</svg>
