<svg width="18" height="18" viewBox="0 0 18 18" fill="none" xmlns="http://www.w3.org/2000/svg">
<path d="M15.3895 9.83358C15.4262 9.5571 15.4442 9.27847 15.4435 8.99958C15.4455 8.72032 15.4244 8.44137 15.3805 8.16558L17.1975 6.76558C17.2755 6.70189 17.3288 6.61304 17.3483 6.51431C17.3678 6.41558 17.3523 6.31313 17.3045 6.22458L15.5825 3.27658C15.5321 3.18646 15.4515 3.11701 15.3549 3.08043C15.2584 3.04385 15.152 3.04249 15.0545 3.07658L12.9155 3.92858C12.4712 3.58771 11.9836 3.30726 11.4655 3.09458L11.1435 0.840576C11.1273 0.738492 11.0749 0.645626 10.996 0.578838C10.9171 0.512049 10.8169 0.475766 10.7135 0.476576H7.28253C7.18019 0.476059 7.08114 0.512658 7.00373 0.579588C6.92632 0.646518 6.8758 0.739242 6.86153 0.840576L6.53953 3.09858C6.02216 3.3127 5.53476 3.59304 5.08953 3.93258L2.95152 3.08158C2.85421 3.04538 2.74708 3.04569 2.64999 3.08247C2.55289 3.11925 2.47243 3.18999 2.42353 3.28158L0.714525 6.22258C0.659535 6.30926 0.639974 6.41376 0.659891 6.51446C0.679808 6.61516 0.737678 6.70435 0.821525 6.76358L2.63853 8.16358C2.53723 8.71446 2.53115 9.27863 2.62053 9.83158L0.803525 11.2316C0.725597 11.2953 0.672287 11.3841 0.65276 11.4828C0.633233 11.5816 0.648708 11.684 0.696525 11.7726L2.41453 14.7186C2.46496 14.8087 2.54554 14.8781 2.64211 14.9147C2.73868 14.9513 2.84505 14.9527 2.94253 14.9186L5.08253 14.0656C5.52687 14.4064 6.01445 14.6869 6.53253 14.8996L6.85453 17.1536C6.87212 17.2551 6.92483 17.3471 7.00343 17.4137C7.08204 17.4802 7.18154 17.517 7.28453 17.5176H10.7205C10.8233 17.5196 10.9231 17.4836 11.0009 17.4163C11.0786 17.3491 11.1287 17.2555 11.1415 17.1536L11.4635 14.8996C11.9826 14.6889 12.4704 14.4083 12.9135 14.0656L15.0525 14.9176C15.1498 14.9538 15.257 14.9535 15.3541 14.9167C15.4512 14.8799 15.5316 14.8092 15.5805 14.7176L17.2955 11.7816C17.3486 11.6944 17.3671 11.5904 17.3473 11.4903C17.3275 11.3901 17.2708 11.301 17.1885 11.2406L15.3895 9.83358ZM9.00052 12.1936C8.36999 12.1882 7.75514 11.9964 7.23345 11.6422C6.71176 11.288 6.30659 10.7874 6.06897 10.2033C5.83136 9.6192 5.77195 8.97786 5.89822 8.36007C6.0245 7.74229 6.33081 7.1757 6.77855 6.73171C7.2263 6.28771 7.79544 5.98618 8.41427 5.86512C9.0331 5.74405 9.67391 5.80886 10.256 6.05138C10.838 6.29389 11.3353 6.70327 11.6851 7.22792C12.0348 7.75257 12.2215 8.36902 12.2215 8.99958C12.2154 9.84948 11.8733 10.6624 11.2698 11.2609C10.6663 11.8593 9.85045 12.1947 9.00052 12.1936Z" fill="white"/>
</svg>
