<svg width="18" height="18" viewBox="0 0 18 18" fill="none" xmlns="http://www.w3.org/2000/svg">
<path d="M11.06 6.02009L11.98 6.94009L2.92 16.0001H2V15.0801L11.06 6.02009ZM14.66 8.82285e-05C14.3977 0.00119285 14.1463 0.105344 13.96 0.290088L12.13 2.12009L15.88 5.87009L17.71 4.04009C17.8962 3.85273 18.0008 3.59927 18.0008 3.33509C18.0008 3.0709 17.8962 2.81745 17.71 2.63009L15.37 0.290088C15.2772 0.19659 15.1665 0.122731 15.0445 0.0729091C14.9225 0.0230874 14.7917 -0.00167789 14.66 8.82285e-05ZM11.06 3.19009L0 14.2501V18.0001H3.75L14.81 6.94009L11.06 3.19009Z" fill="black"/>
</svg>
