<svg width="36" height="30" viewBox="0 0 36 30" fill="none" xmlns="http://www.w3.org/2000/svg">
<path d="M34.9995 3.75C35.0403 2.80326 34.7063 1.87858 34.0698 1.17655C33.4333 0.474515 32.5457 0.0517627 31.5994 0H4.39945C3.45324 0.0517627 2.5656 0.474515 1.9291 1.17655C1.29259 1.87858 0.958553 2.80326 0.999452 3.75V26.25C0.958553 27.1967 1.29259 28.1214 1.9291 28.8235C2.5656 29.5255 3.45324 29.9482 4.39945 30H31.5994C32.5457 29.9482 33.4333 29.5255 34.0698 28.8235C34.7063 28.1214 35.0403 27.1967 34.9995 26.25V3.75ZM31.5994 3.75L17.9995 13.125L4.39945 3.75H31.5994ZM31.5994 26.25H4.39945V7.5L17.9995 16.875L31.5994 7.5V26.25Z" fill="#111111"/>
</svg>
