<svg width="45" height="37" viewBox="0 0 45 37" fill="none" xmlns="http://www.w3.org/2000/svg">
<path d="M43.125 16.6845L33.75 16.6665C33.5064 16.6639 33.2647 16.7092 33.0386 16.8C32.8125 16.8908 32.6065 17.0253 32.4324 17.1957C32.2583 17.3661 32.1195 17.5691 32.0238 17.7931C31.9282 18.0172 31.8776 18.2579 31.875 18.5015V35.0115C31.8776 35.2551 31.9282 35.4958 32.0238 35.7199C32.1195 35.9439 32.2583 36.147 32.4324 36.3174C32.6065 36.4878 32.8125 36.6222 33.0386 36.713C33.2647 36.8038 33.5064 36.8492 33.75 36.8465H43.125C43.3686 36.8492 43.6104 36.8038 43.8364 36.713C44.0625 36.6222 44.2685 36.4878 44.4426 36.3174C44.6167 36.147 44.7555 35.9439 44.8512 35.7199C44.9468 35.4958 44.9974 35.2551 45 35.0115V18.5005C44.9988 18.2596 44.9492 18.0214 44.8542 17.7999C44.7592 17.5785 44.6208 17.3784 44.447 17.2115C44.0923 16.8695 43.6177 16.68 43.125 16.6835V16.6845ZM43.125 33.1775H33.75V20.3355H43.125V33.1775ZM37.5 0.154515H3.75001C2.75845 0.149236 1.80454 0.533888 1.09401 1.22552C0.747034 1.56328 0.471416 1.96728 0.283493 2.41355C0.0955704 2.85983 -0.000830831 3.33929 5.39399e-06 3.82352V25.8385C0.0108204 26.8223 0.411966 27.7615 1.11521 28.4496C1.81846 29.1376 2.76621 29.5182 3.75001 29.5075H16.875V33.1765H13.125V36.8455H28.125V33.1775H24.375V29.5085H28.125V25.8385H3.75001V3.82352H37.5V12.9965H41.25V3.82352C41.2392 2.83972 40.838 1.9005 40.1348 1.21245C39.4316 0.524392 38.4838 0.143848 37.5 0.154515Z" fill="white"/>
</svg>
