<svg width="32" height="32" viewBox="0 0 45 45" fill="none" xmlns="http://www.w3.org/2000/svg">
<path d="M43.125 20.6845L33.75 20.6665C33.5064 20.6639 33.2647 20.7092 33.0386 20.8C32.8125 20.8908 32.6065 21.0253 32.4324 21.1957C32.2583 21.3661 32.1195 21.5691 32.0238 21.7931C31.9282 22.0172 31.8776 22.2579 31.875 22.5015V39.0115C31.8776 39.2551 31.9282 39.4958 32.0238 39.7199C32.1195 39.9439 32.2583 40.147 32.4324 40.3174C32.6065 40.4878 32.8125 40.6222 33.0386 40.713C33.2647 40.8038 33.5064 40.8492 33.75 40.8465H43.125C43.3686 40.8492 43.6104 40.8038 43.8364 40.713C44.0625 40.6222 44.2685 40.4878 44.4426 40.3174C44.6167 40.147 44.7555 39.9439 44.8512 39.7199C44.9468 39.4958 44.9974 39.2551 45 39.0115V22.5005C44.9988 22.2596 44.9492 22.0214 44.8542 21.7999C44.7592 21.5785 44.6208 21.3784 44.447 21.2115C44.0923 20.8695 43.6177 20.68 43.125 20.6835V20.6845ZM43.125 37.1775H33.75V24.3355H43.125V37.1775ZM37.5 4.15452H3.75001C2.75845 4.14924 1.80454 4.53389 1.09401 5.22552C0.747034 5.56328 0.471416 5.96728 0.283493 6.41355C0.0955704 6.85983 -0.000830831 7.33929 5.39399e-06 7.82352V29.8385C0.0108204 30.8223 0.411966 31.7615 1.11521 32.4496C1.81846 33.1376 2.76621 33.5182 3.75001 33.5075H16.875V37.1765H13.125V40.8455H28.125V37.1775H24.375V33.5085H28.125V29.8385H3.75001V7.82352H37.5V16.9965H41.25V7.82352C41.2392 6.83972 40.838 5.9005 40.1348 5.21245C39.4315 4.52439 38.4838 4.14385 37.5 4.15452Z" fill="white"/>
</svg>
