<svg width="25" height="30" viewBox="0 0 25 30" fill="none" xmlns="http://www.w3.org/2000/svg">
<path d="M12.5132 28.6503L12.4994 28.6497L12.4857 28.6503C11.7833 28.679 11.0982 28.428 10.5806 27.9524C10.1538 27.5602 9.86969 27.0416 9.76599 26.478H15.2327C15.1273 27.0405 14.8428 27.5577 14.4166 27.9493C13.8993 28.4248 13.2152 28.6767 12.5132 28.6503ZM21.525 20.385V20.5387L21.6382 20.6428L24.65 23.4097V24.342H0.35V23.4097L3.36184 20.6417L3.475 20.5377V20.384V13.205C3.475 8.92583 5.92677 5.40875 10.2304 4.47201L10.506 4.41203V4.13001V3.16179C10.5293 2.66076 10.7495 2.18908 11.119 1.84957C11.4902 1.50844 11.9817 1.32865 12.4854 1.34971L12.5 1.35032L12.5146 1.34971C13.0183 1.32865 13.5098 1.50844 13.881 1.84957C14.2505 2.18908 14.4707 2.66076 14.494 3.16179V4.13001V4.41438L14.7723 4.4726C16.75 4.88626 18.5157 5.9906 19.7531 7.58777C20.9906 9.18494 21.6188 11.1705 21.5254 13.1888L21.525 13.1969V13.205V20.385Z" fill="white" stroke="#FEFEFE" stroke-width="0.7"/>
</svg>
