<svg width="25" height="30" viewBox="0 0 25 30" fill="none" xmlns="http://www.w3.org/2000/svg">
<path d="M12.5 29C13.2943 29.0299 14.0682 28.7449 14.6535 28.207C15.2387 27.6692 15.5879 26.922 15.625 26.128H9.375C9.40955 26.9229 9.75794 27.6717 10.3438 28.2101C10.9296 28.7485 11.705 29.0325 12.5 29ZM21.875 20.385V13.205C21.9723 11.1037 21.3182 9.03632 20.0298 7.37341C18.7414 5.7105 16.903 4.5607 14.844 4.13001V3.15401C14.8185 2.55763 14.5574 1.99576 14.1178 1.59186C13.6783 1.18796 13.0964 0.975085 12.5 1.00001C11.9036 0.975085 11.3217 1.18796 10.8822 1.59186C10.4426 1.99576 10.1815 2.55763 10.156 3.15401V4.13001C5.672 5.10601 3.125 8.78201 3.125 13.205V20.384L0 23.256V24.692H25V23.256L21.875 20.385Z" fill="white"/>
</svg>
