<svg width="51" height="50" viewBox="0 0 51 50" fill="none" xmlns="http://www.w3.org/2000/svg">
<path d="M25.4999 0.47122C18.9499 0.428899 12.6512 2.9889 7.98791 7.5886C3.32464 12.1883 0.678437 18.4513 0.630859 25.0012C0.678437 31.5511 3.32464 37.8141 7.98791 42.4138C12.6512 47.0135 18.9499 49.5735 25.4999 49.5312C32.0498 49.5735 38.3485 47.0135 43.0118 42.4138C47.6751 37.8141 50.3213 31.5511 50.3689 25.0012C50.3213 18.4513 47.6751 12.1883 43.0118 7.5886C38.3485 2.9889 32.0498 0.428899 25.4999 0.47122ZM25.4999 7.83022C26.9511 7.85014 28.3641 8.29869 29.5611 9.11947C30.7581 9.94026 31.6857 11.0966 32.2273 12.4432C32.7688 13.7897 32.9002 15.2664 32.6048 16.6874C32.3095 18.1084 31.6005 19.4103 30.5672 20.4295C29.5339 21.4487 28.2223 22.1397 26.7974 22.4154C25.3724 22.6912 23.8978 22.5395 22.5588 21.9795C21.2198 21.4194 20.0763 20.476 19.2721 19.2678C18.4679 18.0596 18.0388 16.6406 18.0389 15.1892C18.0442 14.2157 18.2416 13.2529 18.6197 12.3558C18.9978 11.4587 19.5492 10.6451 20.2423 9.96149C20.9354 9.27788 21.7565 8.73774 22.6587 8.37202C23.5609 8.0063 24.5264 7.82218 25.4999 7.83022ZM25.4999 42.6632C22.556 42.6692 19.6557 41.9519 17.0539 40.5744C14.4522 39.1969 12.2287 37.2014 10.5789 34.7632C10.6539 29.8822 20.5269 27.2082 25.4999 27.2082C30.4489 27.2082 40.3469 29.8822 40.4209 34.7632C38.771 37.2014 36.5475 39.1969 33.9458 40.5744C31.344 41.9519 28.4438 42.6692 25.4999 42.6632Z" fill="white"/>
</svg>
