<svg width="28" height="22" viewBox="0 0 28 22" fill="none" xmlns="http://www.w3.org/2000/svg">
<path d="M17.818 11C19.2219 10.9441 20.5462 10.3336 21.5006 9.30254C22.455 8.27148 22.9615 6.90399 22.909 5.5C22.9615 4.09601 22.455 2.72852 21.5006 1.69746C20.5462 0.666399 19.2219 0.055949 17.818 0C16.4141 0.055949 15.0898 0.666399 14.1354 1.69746C13.181 2.72852 12.6745 4.09601 12.727 5.5C12.6745 6.90399 13.181 8.27148 14.1354 9.30254C15.0898 10.3336 16.4141 10.9441 17.818 11ZM17.818 2.75C18.5193 2.77992 19.1803 3.08572 19.6572 3.60079C20.1341 4.11586 20.3881 4.79849 20.364 5.5C20.3881 6.20134 20.1342 6.88383 19.6576 7.39887C19.1809 7.91392 18.5201 8.21982 17.819 8.25C17.1177 8.22008 16.4567 7.91428 15.9798 7.39921C15.5029 6.88414 15.2489 6.20151 15.273 5.5C15.2489 4.79866 15.5028 4.11617 15.9794 3.60113C16.4561 3.08608 17.1169 2.78018 17.818 2.75ZM17.818 13.75C14.418 13.75 7.636 15.593 7.636 19.25V22H28V19.25C28 15.593 21.216 13.75 17.818 13.75ZM10.182 19.25C10.462 18.26 14.395 16.5 17.818 16.5C21.241 16.5 25.2 18.274 25.454 19.25H10.182ZM6.364 15.125V11H10.182V8.25H6.364V4.125H3.818V8.25H0V11H3.818V15.125H6.364Z" fill="black"/>
</svg>
