<svg width="28" height="28" viewBox="0 0 28 28" fill="none" xmlns="http://www.w3.org/2000/svg">
<path d="M20.2993 17.9813H19.0793L18.6473 17.5643C20.3399 15.5921 21.2026 13.0409 21.0543 10.4462C20.9059 7.85147 19.7581 5.41514 17.8518 3.64869C15.9454 1.88224 13.4289 0.923058 10.8304 0.972526C8.23192 1.02199 5.75367 2.07626 3.91594 3.91399C2.07821 5.75172 1.02395 8.22997 0.974479 10.8284C0.925012 13.4269 1.88419 15.9435 3.65065 17.8498C5.4171 19.7562 7.85343 20.904 10.4481 21.0523C13.0428 21.2007 15.5941 20.338 17.5663 18.6453L17.9833 19.0773V20.3003L25.6993 28.0003L27.9993 25.7003L20.2993 17.9813ZM11.0373 17.9813C9.6633 17.9813 8.32017 17.5739 7.17774 16.8106C6.03531 16.0472 5.1449 14.9622 4.6191 13.6928C4.09329 12.4234 3.95572 11.0266 4.22377 9.67904C4.49182 8.33146 5.15346 7.09362 6.12502 6.12206C7.09657 5.15051 8.33441 4.48887 9.682 4.22082C11.0296 3.95277 12.4264 4.09034 13.6958 4.61614C14.9652 5.14195 16.0502 6.03236 16.8135 7.17479C17.5769 8.31722 17.9843 9.66035 17.9843 11.0343C17.9855 11.9473 17.8065 12.8515 17.4575 13.6952C17.1086 14.5388 16.5965 15.3053 15.9508 15.9507C15.305 16.596 14.5383 17.1076 13.6944 17.4561C12.8506 17.8046 11.9462 17.983 11.0333 17.9813H11.0373Z" fill="#111111"/>
</svg>
