<svg width="26" height="31" viewBox="0 0 26 31" fill="none" xmlns="http://www.w3.org/2000/svg">
<path d="M22.75 10H21.125V7.143C21.125 3.2 17.485 0 13 0C8.515 0 4.875 3.2 4.875 7.143V10H3.25C2.44158 9.9538 1.64745 10.2276 1.03929 10.7622C0.431127 11.2968 0.0577954 12.0493 0 12.857V27.143C0.0577954 27.9507 0.431127 28.7032 1.03929 29.2378C1.64745 29.7724 2.44158 30.0462 3.25 30H22.75C23.5584 30.0462 24.3525 29.7724 24.9607 29.2378C25.5689 28.7032 25.9422 27.9507 26 27.143V12.857C25.9422 12.0493 25.5689 11.2968 24.9607 10.7622C24.3525 10.2276 23.5584 9.9538 22.75 10ZM8.125 7.143C8.2057 5.92916 8.76395 4.79671 9.67758 3.99347C10.5912 3.19022 11.7858 2.78159 13 2.857C14.2142 2.78159 15.4088 3.19022 16.3224 3.99347C17.2361 4.79671 17.7943 5.92916 17.875 7.143V10H8.125V7.143ZM22.75 27.143H3.25V12.857H22.75V27.143ZM13 22.857C13.8084 22.9032 14.6025 22.6294 15.2107 22.0948C15.8189 21.5602 16.1922 20.8077 16.25 20C16.1922 19.1923 15.8189 18.4398 15.2107 17.9052C14.6025 17.3706 13.8084 17.0968 13 17.143C12.1916 17.0968 11.3974 17.3706 10.7893 17.9052C10.1811 18.4398 9.8078 19.1923 9.75 20C9.8078 20.8077 10.1811 21.5602 10.7893 22.0948C11.3974 22.6294 12.1916 22.9032 13 22.857Z" fill="black"/>
</svg>
