<svg width="30" height="30" viewBox="0 0 30 30" fill="none" xmlns="http://www.w3.org/2000/svg">
<path d="M5.9 3.333C5.99521 4.79464 6.24665 6.24189 6.65 7.65L4.65 9.65C3.95378 7.60865 3.52782 5.48494 3.383 3.333H5.9ZM22.333 23.367C23.7475 23.7661 25.1996 24.0175 26.666 24.117V26.6C24.5109 26.451 22.3831 26.0311 20.333 25.35L22.333 23.367ZM7.5 0H1.667C1.22529 0.00131894 0.802048 0.177372 0.48971 0.48971C0.177372 0.802048 0.00131901 1.22529 7.06056e-08 1.667C-0.000262606 5.38782 0.732413 9.07224 2.15619 12.5099C3.57996 15.9475 5.66694 19.071 8.29796 21.702C10.929 24.3331 14.0525 26.42 17.4901 27.8438C20.9278 29.2676 24.6122 30.0003 28.333 30C28.7747 29.9987 29.198 29.8226 29.5103 29.5103C29.8226 29.198 29.9987 28.7747 30 28.333V22.517C29.9987 22.0753 29.8226 21.652 29.5103 21.3397C29.198 21.0274 28.7747 20.8513 28.333 20.85C26.3118 20.8516 24.3032 20.5309 22.383 19.9C22.2174 19.8401 22.042 19.8119 21.866 19.817C21.424 19.8188 20.9999 19.9919 20.683 20.3L17.016 23.967C12.2917 21.5508 8.4488 17.7075 6.033 12.983L9.7 9.317C9.9197 9.09977 10.075 8.82595 10.1486 8.52589C10.2222 8.22582 10.2112 7.91124 10.117 7.617C9.48476 5.69709 9.16404 3.68833 9.167 1.667C9.16568 1.22529 8.98963 0.802048 8.67729 0.48971C8.36495 0.177372 7.94171 0.00131894 7.5 0Z" fill="#111111"/>
</svg>
